<?xml version="1.0" encoding="utf-8"?>
<!-- Generator: Adobe Illustrator 19.0.0, SVG Export Plug-In . SVG Version: 6.00 Build 0)  -->
<svg version="1.1" id="Слой_1" xmlns="http://www.w3.org/2000/svg" xmlns:xlink="http://www.w3.org/1999/xlink" x="0px" y="0px"
	 viewBox="-113 141 384 512" style="enable-background:new -113 141 384 512;" xml:space="preserve">
<style type="text/css">
	.st0{display:none;}
	.st1{display:inline;fill:#FFFFFF;}
	.st2{fill:#222222;}
</style>
<g id="Слой_1_1_" class="st0">
	<path class="st1" d="M84.2,524.6c27.7-14.2,45.4-39.4,41.3-81.3c-5.4-57.4-52.5-76.6-114.9-81.9V282h-48.5v77.2
		c-12.6,0-25.5,0.3-38.4,0.6V282h-48.5v79.4c-17.8,0.5-38.6,0.3-97.4,0v51.7c38.3-0.7,58.4-3.1,63,21.4v217.4
		c-2.9,19.5-18.5,16.7-53.3,16.1l-9.8,57.7c88.5,0,97.4,0.3,97.4,0.3v68h48.5v-67.1c13.2,0.3,26.2,0.3,38.4,0.3V794h48.5v-68
		c81.3-4.4,135.6-24.9,142.9-101.5C159.2,563.1,130.2,535.7,84.2,524.6L84.2,524.6z M-75.4,416.6c27.4,0,113.1-8.5,113.1,48.5
		c0,54.5-85.7,48.2-113.1,48.2V416.6L-75.4,416.6z M-75.4,668.3V561.8c32.8,0,133.1-9.1,133.1,53.3
		C57.7,675.3-42.6,668.3-75.4,668.3L-75.4,668.3z"/>
</g>
<g id="Слой_2">
	<path class="st2" d="M144.2,374.4l-108-31.6C23.7,339.2,15,327.5,15,314.5c0-16.3,13.2-29.5,29.5-29.5h66.3
		c12.2,0,24.2,3.7,34.2,10.5c6.1,4.1,14.3,3.1,19.5-2l34.8-34c7.1-6.9,6.1-18.4-1.8-24.5c-24.5-19.2-55.1-29.9-86.5-30v-48
		c0-8.8-7.2-16-16-16H63c-8.8,0-16,7.2-16,16v48h-2.5c-63.7,0-114.9,54.7-109,119.6c4.2,46.1,39.4,83.6,83.8,96.6l102.5,30
		c12.5,3.7,21.2,15.3,21.2,28.3c0,16.3-13.2,29.5-29.5,29.5H47.2C35,509,23,505.3,13,498.5c-6.1-4.1-14.3-3.1-19.5,2l-34.8,34
		c-7.1,6.9-6.1,18.4,1.8,24.5c24.5,19.2,55.1,29.9,86.5,30v48c0,8.8,7.2,16,16,16h32c8.8,0,16-7.2,16-16v-48.2
		c46.6-0.9,90.3-28.6,105.7-72.7C238.2,454.5,202.1,391.3,144.2,374.4L144.2,374.4z"/>
</g>
</svg>
